<svg width="19" height="22" viewBox="0 0 19 22" fill="none" xmlns="http://www.w3.org/2000/svg">
<path d="M16.53 6.52953L17.95 5.10953C17.5 4.59953 17.05 4.13953 16.54 3.69953L15.12 5.13953C13.57 3.87953 11.62 3.13953 9.5 3.13953C7.11305 3.13953 4.82387 4.08774 3.13604 5.77557C1.44821 7.46339 0.5 9.75258 0.5 12.1395C0.5 14.5265 1.44821 16.8157 3.13604 18.5035C4.82387 20.1913 7.11305 21.1395 9.5 21.1395C14.5 21.1395 18.5 17.1095 18.5 12.1395C18.5 10.0195 17.76 8.06953 16.53 6.52953ZM10.5 13.1395H8.5V6.13953H10.5V13.1395ZM12.5 0.139526H6.5V2.13953H12.5V0.139526Z" fill="#FFA726"/>
</svg>
